<svg xmlns="http://www.w3.org/2000/svg" viewBox="0 0 24 24" width="24" height="24" fill="none" stroke="currentColor" stroke-width="2" stroke-linecap="round" stroke-linejoin="round">
  <!-- Sacco di pellet -->
  <path d="M6,5 L18,5 L18,19 C18,20.1 17.1,21 16,21 L8,21 C6.9,21 6,20.1 6,19 L6,5 Z" fill="#8B4513" stroke="#5D2906"/>
  <!-- Parte superiore del sacco -->
  <path d="M6,5 C6,3.9 6.9,3 8,3 L16,3 C17.1,3 18,3.9 18,5" stroke="#5D2906"/>
  <!-- Pellet all'interno del sacco -->
  <circle cx="9" cy="9" r="1" fill="#D2B48C"/>
  <circle cx="12" cy="8" r="1" fill="#D2B48C"/>
  <circle cx="15" cy="9" r="1" fill="#D2B48C"/>
  <circle cx="8" cy="12" r="1" fill="#D2B48C"/>
  <circle cx="11" cy="11" r="1" fill="#D2B48C"/>
  <circle cx="14" cy="12" r="1" fill="#D2B48C"/>
  <circle cx="9" cy="15" r="1" fill="#D2B48C"/>
  <circle cx="12" cy="14" r="1" fill="#D2B48C"/>
  <circle cx="15" cy="15" r="1" fill="#D2B48C"/>
  <!-- Linee decorative per il sacco -->
  <line x1="9" y1="5" x2="9" y2="7" stroke="#5D2906" stroke-width="1"/>
  <line x1="12" y1="5" x2="12" y2="7" stroke="#5D2906" stroke-width="1"/>
  <line x1="15" y1="5" x2="15" y2="7" stroke="#5D2906" stroke-width="1"/>
</svg>