<svg xmlns="http://www.w3.org/2000/svg" viewBox="0 0 24 24" width="24" height="24" fill="none" stroke="currentColor" stroke-width="2" stroke-linecap="round" stroke-linejoin="round">
  <!-- Corpo della stufa a pellet -->
  <rect x="5" y="4" width="14" height="16" rx="1" ry="1" fill="#555555" stroke="#333333"/>
  
  <!-- Sportello della stufa -->
  <rect x="7" y="7" width="10" height="8" rx="1" ry="1" fill="#333333" stroke="#222222"/>
  
  <!-- Vetro dello sportello con fiamma -->
  <rect x="8" y="8" width="8" height="6" rx="0.5" ry="0.5" fill="#111111" stroke="#222222"/>
  
  <!-- Fiamme -->
  <path d="M10,13 Q11,10 12,13 Q13,10 14,13" fill="#FF6600" stroke="#FF9900" stroke-width="0.5"/>
  <path d="M10.5,12.5 Q11.5,10.5 12,12.5 Q12.5,10.5 13.5,12.5" fill="#FFCC00" stroke="none"/>
  
  <!-- Pannello di controllo -->
  <rect x="8" y="16" width="8" height="2" rx="0.5" ry="0.5" fill="#222222" stroke="#111111"/>
  <circle cx="10" cy="17" r="0.5" fill="#00FF00"/>
  <circle cx="12" cy="17" r="0.5" fill="#FF0000"/>
  <circle cx="14" cy="17" r="0.5" fill="#0000FF"/>
  
  <!-- Tubo di scarico -->
  <path d="M19,6 L21,6 L21,4" fill="none" stroke="#333333" stroke-width="1.5"/>
  
  <!-- Serbatoio pellet -->
  <path d="M5,4 L5,2 L19,2 L19,4" fill="#777777" stroke="#333333"/>
  <line x1="8" y1="3" x2="16" y2="3" stroke="#333333" stroke-width="0.5"/>
</svg>